# xmcd CD database file
#
# Track frame offsets:
#	150
#	10778
#	21290
#	33645
#	46759
#	58126
#	73367
#	85678
#	99428
#	110803
#	120389
#	136045
#	145649
#	156040
#	164339
#	175977
#
# Disc length: 2511 seconds
#
# Revision: 2
# Processed by: cddbd v1.5.2PL0 Copyright (c) Steve Scherf et al.
# Submitted via: CDex 1.50beta10
#
DISCID=d109cd10
DTITLE=Various Artist - Country Stars Of The Millenium Part 2
DYEAR=2000
DGENRE=Country
TTITLE0=Roger Miller - King Of The Road
TTITLE1=Jim Nesbitt - Running Bare
TTITLE2=Johnny Cash - I Walk The Line
TTITLE3=Kenny Rogers - Ruby
TTITLE4=Waylon Jennings - Sally Was A Good Old Girl
TTITLE5=Earl Thomas Conley - The Night They Drove Old Dixie Down
TTITLE6=Billie Jo Spears - What I've Got In Mind
TTITLE7=Don Williams - Where Do We Go From Here
TTITLE8=Stoney Cooper and Wilma Lee - Big Midnight Special
TTITLE9=Freddy Fender - Running Back
TTITLE10=Billy Joe Royal - Tulsa
TTITLE11=George Jones - The Race Is On
TTITLE12=Patsy Cline - Pick Me Up On Your Way Down
TTITLE13=Willie Nelson - You Wouldn't Cross The Street To Say Goodbye
TTITLE14=Frankie Laine - Mule Train
TTITLE15=Glen Campbell - By The Time I Get To Phoenix
EXTD=YEAR: 2000
EXTT0=
EXTT1=
EXTT2=
EXTT3=
EXTT4=
EXTT5=
EXTT6=
EXTT7=
EXTT8=
EXTT9=
EXTT10=
EXTT11=
EXTT12=
EXTT13=
EXTT14=
EXTT15=
PLAYORDER=
